FFmpeg version 0.5, Copyright (c) 2000-2009 Fabrice Bellard, et al.
  configuration: --prefix=/opt/local --disable-vhook --enable-gpl --enable-postproc --enable-swscale --enable-avfilter --enable-avfilter-lavf --enable-libmp3lame --enable-libvorbis --enable-libtheora --enable-libdirac --enable-libschroedinger --enable-libfaac --enable-libfaad --enable-libxvid --enable-libx264 --mandir=/opt/local/share/man --enable-shared --enable-pthreads --cc=/usr/bin/gcc-4.0 --arch=i386
  libavutil     49.15. 0 / 49.15. 0
  libavcodec    52.20. 0 / 52.20. 0
  libavformat   52.31. 0 / 52.31. 0
  libavdevice   52. 1. 0 / 52. 1. 0
  libavfilter    1. 4. 0 /  1. 4. 0
  libswscale     1. 7. 1 /  1. 7. 1
  libpostproc   51. 2. 0 / 51. 2. 0
  built on Feb 18 2010 14:32:54, gcc: 4.0.1 (Apple Inc. build 5493)
Input #0, aiff, from '/Users/lucido/workspace/the-fascinator/plugins/transformer/ffmpeg/target/test-classes/african_drum.aif':
  Duration: 00:00:00.32, start: 0.000000, bitrate: 1061 kb/s
    Stream #0.0: Audio: pcm_s24be, 44100 Hz, mono, s16, 1058 kb/s
Output #0, flv, to 'african_drum.flv':
    Stream #0.0: Audio: libmp3lame, 44100 Hz, mono, s16, 64 kb/s
Stream mapping:
  Stream #0.0 -> #0.0
Press [q] to stop encoding
[libmp3lame @ 0x1812a00]lame: output buffer too small (buffer index: 9405, free bytes: 387)
Audio encoding failed
